<mxfile host="65bd71144e">
    <diagram id="2jBqbDfgATmIIH-r2Uvh" name="Page-1">
        <mxGraphModel dx="1257" dy="604" grid="1" gridSize="10" guides="1" tooltips="1" connect="1" arrows="1" fold="1" page="1" pageScale="1" pageWidth="827" pageHeight="1169" math="0" shadow="0">
            <root>
                <mxCell id="0"/>
                <mxCell id="1" parent="0"/>
                <mxCell id="RlHqHq6rw03dmAbbTdx9-1" value="Core" style="swimlane;rounded=0;" parent="1" vertex="1">
                    <mxGeometry x="350" y="90" width="200" height="310" as="geometry"/>
                </mxCell>
                <mxCell id="RlHqHq6rw03dmAbbTdx9-68" style="edgeStyle=orthogonalEdgeStyle;rounded=0;orthogonalLoop=1;jettySize=auto;html=1;entryX=0.75;entryY=0;entryDx=0;entryDy=0;fontSize=11;endArrow=classic;endFill=1;startSize=5;endSize=6;" parent="RlHqHq6rw03dmAbbTdx9-1" source="RlHqHq6rw03dmAbbTdx9-3" target="RlHqHq6rw03dmAbbTdx9-24" edge="1">
                    <mxGeometry relative="1" as="geometry"/>
                </mxCell>
                <mxCell id="RlHqHq6rw03dmAbbTdx9-3" value="db&amp;nbsp;engine" style="rounded=0;whiteSpace=wrap;html=1;" parent="RlHqHq6rw03dmAbbTdx9-1" vertex="1">
                    <mxGeometry x="100" y="80" width="90" height="30" as="geometry"/>
                </mxCell>
                <mxCell id="RlHqHq6rw03dmAbbTdx9-14" value="Controller" style="rounded=0;whiteSpace=wrap;html=1;" parent="RlHqHq6rw03dmAbbTdx9-1" vertex="1">
                    <mxGeometry x="10" y="240" width="180" height="60" as="geometry"/>
                </mxCell>
                <mxCell id="RlHqHq6rw03dmAbbTdx9-66" style="edgeStyle=orthogonalEdgeStyle;rounded=0;orthogonalLoop=1;jettySize=auto;html=1;entryX=0.5;entryY=0;entryDx=0;entryDy=0;fontSize=11;endArrow=classic;endFill=1;startSize=5;endSize=6;" parent="RlHqHq6rw03dmAbbTdx9-1" source="RlHqHq6rw03dmAbbTdx9-26" target="RlHqHq6rw03dmAbbTdx9-63" edge="1">
                    <mxGeometry relative="1" as="geometry">
                        <Array as="points">
                            <mxPoint x="50" y="70"/>
                            <mxPoint x="50" y="70"/>
                        </Array>
                    </mxGeometry>
                </mxCell>
                <mxCell id="RlHqHq6rw03dmAbbTdx9-26" value="xml/json engine" style="rounded=0;whiteSpace=wrap;html=1;" parent="RlHqHq6rw03dmAbbTdx9-1" vertex="1">
                    <mxGeometry x="10" y="30" width="180" height="30" as="geometry"/>
                </mxCell>
                <mxCell id="RlHqHq6rw03dmAbbTdx9-37" style="edgeStyle=orthogonalEdgeStyle;rounded=0;orthogonalLoop=1;jettySize=auto;html=1;entryX=0.5;entryY=0;entryDx=0;entryDy=0;fontSize=12;endArrow=classic;endFill=1;startSize=5;endSize=6;exitX=0.5;exitY=1;exitDx=0;exitDy=0;" parent="RlHqHq6rw03dmAbbTdx9-1" source="RlHqHq6rw03dmAbbTdx9-24" target="RlHqHq6rw03dmAbbTdx9-14" edge="1">
                    <mxGeometry relative="1" as="geometry"/>
                </mxCell>
                <mxCell id="RlHqHq6rw03dmAbbTdx9-24" value="Model" style="rounded=0;whiteSpace=wrap;html=1;fontSize=12;" parent="RlHqHq6rw03dmAbbTdx9-1" vertex="1">
                    <mxGeometry x="10" y="130" width="180" height="90" as="geometry"/>
                </mxCell>
                <mxCell id="RlHqHq6rw03dmAbbTdx9-67" value="" style="edgeStyle=orthogonalEdgeStyle;rounded=0;orthogonalLoop=1;jettySize=auto;html=1;fontSize=11;endArrow=classic;endFill=1;startSize=5;endSize=6;" parent="RlHqHq6rw03dmAbbTdx9-1" source="RlHqHq6rw03dmAbbTdx9-63" edge="1">
                    <mxGeometry relative="1" as="geometry">
                        <mxPoint x="50" y="130" as="targetPoint"/>
                    </mxGeometry>
                </mxCell>
                <mxCell id="RlHqHq6rw03dmAbbTdx9-63" value="state" style="rounded=0;whiteSpace=wrap;html=1;" parent="RlHqHq6rw03dmAbbTdx9-1" vertex="1">
                    <mxGeometry x="10" y="80" width="80" height="30" as="geometry"/>
                </mxCell>
                <mxCell id="RlHqHq6rw03dmAbbTdx9-2" value="DB" style="shape=cylinder3;whiteSpace=wrap;html=1;boundedLbl=1;backgroundOutline=1;size=15;rounded=0;" parent="1" vertex="1">
                    <mxGeometry x="690" y="10" width="60" height="80" as="geometry"/>
                </mxCell>
                <mxCell id="RlHqHq6rw03dmAbbTdx9-4" value="user&lt;br&gt;" style="shape=umlActor;verticalLabelPosition=bottom;verticalAlign=top;html=1;outlineConnect=0;rounded=0;" parent="1" vertex="1">
                    <mxGeometry x="-10" y="309" width="30" height="60" as="geometry"/>
                </mxCell>
                <mxCell id="RlHqHq6rw03dmAbbTdx9-8" style="edgeStyle=orthogonalEdgeStyle;rounded=0;orthogonalLoop=1;jettySize=auto;html=1;exitX=1;exitY=0.5;exitDx=0;exitDy=0;entryX=0;entryY=0.5;entryDx=0;entryDy=0;" parent="1" source="RlHqHq6rw03dmAbbTdx9-6" target="RlHqHq6rw03dmAbbTdx9-7" edge="1">
                    <mxGeometry relative="1" as="geometry"/>
                </mxCell>
                <mxCell id="RlHqHq6rw03dmAbbTdx9-10" style="edgeStyle=orthogonalEdgeStyle;rounded=0;orthogonalLoop=1;jettySize=auto;html=1;exitX=1;exitY=0.5;exitDx=0;exitDy=0;entryX=0;entryY=0.5;entryDx=0;entryDy=0;" parent="1" source="RlHqHq6rw03dmAbbTdx9-6" target="RlHqHq6rw03dmAbbTdx9-9" edge="1">
                    <mxGeometry relative="1" as="geometry"/>
                </mxCell>
                <mxCell id="RlHqHq6rw03dmAbbTdx9-6" value="" style="ellipse;html=1;shape=endState;rounded=0;" parent="1" vertex="1">
                    <mxGeometry x="30" y="329" width="20" height="20" as="geometry"/>
                </mxCell>
                <mxCell id="RlHqHq6rw03dmAbbTdx9-7" value="cli" style="rounded=0;whiteSpace=wrap;html=1;" parent="1" vertex="1">
                    <mxGeometry x="140" y="279" width="80" height="40" as="geometry"/>
                </mxCell>
                <mxCell id="RlHqHq6rw03dmAbbTdx9-9" value="gui" style="rounded=0;whiteSpace=wrap;html=1;" parent="1" vertex="1">
                    <mxGeometry x="140" y="399" width="80" height="40" as="geometry"/>
                </mxCell>
                <mxCell id="RlHqHq6rw03dmAbbTdx9-27" value="State" style="shape=cylinder3;whiteSpace=wrap;html=1;boundedLbl=1;backgroundOutline=1;size=15;rounded=0;" parent="1" vertex="1">
                    <mxGeometry x="610" y="10" width="60" height="80" as="geometry"/>
                </mxCell>
                <mxCell id="RlHqHq6rw03dmAbbTdx9-28" style="edgeStyle=orthogonalEdgeStyle;rounded=0;orthogonalLoop=1;jettySize=auto;html=1;entryX=0.5;entryY=1;entryDx=0;entryDy=0;entryPerimeter=0;fontSize=12;endArrow=classic;endFill=1;startSize=5;endSize=6;" parent="1" source="RlHqHq6rw03dmAbbTdx9-26" target="RlHqHq6rw03dmAbbTdx9-27" edge="1">
                    <mxGeometry relative="1" as="geometry"/>
                </mxCell>
                <mxCell id="RlHqHq6rw03dmAbbTdx9-33" style="edgeStyle=orthogonalEdgeStyle;rounded=0;orthogonalLoop=1;jettySize=auto;html=1;entryX=1;entryY=0.5;entryDx=0;entryDy=0;fontSize=12;endArrow=classic;endFill=1;startSize=5;endSize=6;" parent="1" source="RlHqHq6rw03dmAbbTdx9-14" target="RlHqHq6rw03dmAbbTdx9-7" edge="1">
                    <mxGeometry relative="1" as="geometry">
                        <mxPoint x="200" y="180" as="targetPoint"/>
                    </mxGeometry>
                </mxCell>
                <mxCell id="RlHqHq6rw03dmAbbTdx9-34" style="edgeStyle=orthogonalEdgeStyle;rounded=0;orthogonalLoop=1;jettySize=auto;html=1;entryX=1;entryY=0.5;entryDx=0;entryDy=0;fontSize=12;endArrow=classic;endFill=1;startSize=5;endSize=6;" parent="1" source="RlHqHq6rw03dmAbbTdx9-14" target="RlHqHq6rw03dmAbbTdx9-9" edge="1">
                    <mxGeometry relative="1" as="geometry">
                        <mxPoint x="200" y="300" as="targetPoint"/>
                    </mxGeometry>
                </mxCell>
                <mxCell id="RlHqHq6rw03dmAbbTdx9-47" value="&lt;h1 style=&quot;font-size: 11px;&quot;&gt;CLI&lt;/h1&gt;&lt;p style=&quot;font-size: 11px;&quot;&gt;&lt;span style=&quot;background-color: initial;&quot;&gt;При запуске, создаётся ядро, с которым взаимодействуем по средствам контроллера.&amp;nbsp;&lt;/span&gt;&lt;br&gt;&lt;/p&gt;&lt;p style=&quot;font-size: 11px;&quot;&gt;Ввод по средствам флагов, образует очередь задач.&lt;/p&gt;&lt;p style=&quot;font-size: 11px;&quot;&gt;После проходим по очереди, последовательно выполняя задачи.&lt;/p&gt;&lt;p style=&quot;font-size: 11px;&quot;&gt;Работа со State, находится на уровне ядра.&lt;/p&gt;" style="text;html=1;strokeColor=none;fillColor=none;spacing=5;spacingTop=-20;whiteSpace=wrap;overflow=hidden;rounded=0;fontSize=11;" parent="1" vertex="1">
                    <mxGeometry x="100" y="39" width="190" height="190" as="geometry"/>
                </mxCell>
                <mxCell id="RlHqHq6rw03dmAbbTdx9-57" value="db engine" style="swimlane;fontStyle=1;align=center;verticalAlign=middle;childLayout=stackLayout;horizontal=1;startSize=29;horizontalStack=0;resizeParent=1;resizeParentMax=0;resizeLast=0;collapsible=0;marginBottom=0;html=1;rounded=0;fontSize=11;" parent="1" vertex="1">
                    <mxGeometry x="840" y="210" width="140" height="54" as="geometry"/>
                </mxCell>
                <mxCell id="RlHqHq6rw03dmAbbTdx9-58" value="get session" style="text;html=1;strokeColor=none;fillColor=none;align=left;verticalAlign=middle;spacingLeft=4;spacingRight=4;overflow=hidden;rotatable=0;points=[[0,0.5],[1,0.5]];portConstraint=eastwest;rounded=0;fontSize=11;" parent="RlHqHq6rw03dmAbbTdx9-57" vertex="1">
                    <mxGeometry y="29" width="140" height="25" as="geometry"/>
                </mxCell>
                <mxCell id="RlHqHq6rw03dmAbbTdx9-60" value="db engine" style="swimlane;fontStyle=1;align=center;verticalAlign=middle;childLayout=stackLayout;horizontal=1;startSize=29;horizontalStack=0;resizeParent=1;resizeParentMax=0;resizeLast=0;collapsible=0;marginBottom=0;html=1;rounded=0;fontSize=11;" parent="1" vertex="1">
                    <mxGeometry x="720" y="230" width="140" height="79" as="geometry"/>
                </mxCell>
                <mxCell id="RlHqHq6rw03dmAbbTdx9-61" value="load state" style="text;html=1;strokeColor=none;fillColor=none;align=left;verticalAlign=middle;spacingLeft=4;spacingRight=4;overflow=hidden;rotatable=0;points=[[0,0.5],[1,0.5]];portConstraint=eastwest;rounded=0;fontSize=11;" parent="RlHqHq6rw03dmAbbTdx9-60" vertex="1">
                    <mxGeometry y="29" width="140" height="25" as="geometry"/>
                </mxCell>
                <mxCell id="RlHqHq6rw03dmAbbTdx9-62" value="dump state" style="text;html=1;strokeColor=none;fillColor=none;align=left;verticalAlign=middle;spacingLeft=4;spacingRight=4;overflow=hidden;rotatable=0;points=[[0,0.5],[1,0.5]];portConstraint=eastwest;rounded=0;fontSize=11;" parent="RlHqHq6rw03dmAbbTdx9-60" vertex="1">
                    <mxGeometry y="54" width="140" height="25" as="geometry"/>
                </mxCell>
                <mxCell id="RlHqHq6rw03dmAbbTdx9-65" style="edgeStyle=orthogonalEdgeStyle;rounded=0;orthogonalLoop=1;jettySize=auto;html=1;entryX=0.5;entryY=1;entryDx=0;entryDy=0;entryPerimeter=0;fontSize=11;endArrow=classic;endFill=1;startSize=5;endSize=6;" parent="1" source="RlHqHq6rw03dmAbbTdx9-3" target="RlHqHq6rw03dmAbbTdx9-2" edge="1">
                    <mxGeometry relative="1" as="geometry"/>
                </mxCell>
                <mxCell id="RlHqHq6rw03dmAbbTdx9-69" value="Model" style="swimlane;fontStyle=1;align=center;verticalAlign=middle;childLayout=stackLayout;horizontal=1;startSize=29;horizontalStack=0;resizeParent=1;resizeParentMax=0;resizeLast=0;collapsible=0;marginBottom=0;html=1;rounded=0;fontSize=11;" parent="1" vertex="1">
                    <mxGeometry x="770" y="310" width="140" height="129" as="geometry"/>
                </mxCell>
                <mxCell id="RlHqHq6rw03dmAbbTdx9-71" value="features 1" style="text;html=1;strokeColor=none;fillColor=none;align=left;verticalAlign=middle;spacingLeft=4;spacingRight=4;overflow=hidden;rotatable=0;points=[[0,0.5],[1,0.5]];portConstraint=eastwest;rounded=0;fontSize=11;" parent="RlHqHq6rw03dmAbbTdx9-69" vertex="1">
                    <mxGeometry y="29" width="140" height="25" as="geometry"/>
                </mxCell>
                <mxCell id="RlHqHq6rw03dmAbbTdx9-72" value="features 2" style="text;html=1;strokeColor=none;fillColor=none;align=left;verticalAlign=middle;spacingLeft=4;spacingRight=4;overflow=hidden;rotatable=0;points=[[0,0.5],[1,0.5]];portConstraint=eastwest;rounded=0;fontSize=11;" parent="RlHqHq6rw03dmAbbTdx9-69" vertex="1">
                    <mxGeometry y="54" width="140" height="25" as="geometry"/>
                </mxCell>
                <mxCell id="RlHqHq6rw03dmAbbTdx9-76" value="features 3" style="text;html=1;strokeColor=none;fillColor=none;align=left;verticalAlign=middle;spacingLeft=4;spacingRight=4;overflow=hidden;rotatable=0;points=[[0,0.5],[1,0.5]];portConstraint=eastwest;rounded=0;fontSize=11;" parent="RlHqHq6rw03dmAbbTdx9-69" vertex="1">
                    <mxGeometry y="79" width="140" height="25" as="geometry"/>
                </mxCell>
                <mxCell id="RlHqHq6rw03dmAbbTdx9-77" value="features 4" style="text;html=1;strokeColor=none;fillColor=none;align=left;verticalAlign=middle;spacingLeft=4;spacingRight=4;overflow=hidden;rotatable=0;points=[[0,0.5],[1,0.5]];portConstraint=eastwest;rounded=0;fontSize=11;" parent="RlHqHq6rw03dmAbbTdx9-69" vertex="1">
                    <mxGeometry y="104" width="140" height="25" as="geometry"/>
                </mxCell>
            </root>
        </mxGraphModel>
    </diagram>
</mxfile>